<?xml version="1.0" standalone="no"?>
<!DOCTYPE svg PUBLIC "-//W3C//DTD SVG 20010904//EN"
 "http://www.w3.org/TR/2001/REC-SVG-20010904/DTD/svg10.dtd">
<svg version="1.0" xmlns="http://www.w3.org/2000/svg"
 width="500.000000pt" height="500.000000pt" viewBox="0 0 500.000000 500.000000"
 preserveAspectRatio="xMidYMid meet">
<metadata>
Created by potrace 1.14, written by Peter Selinger 2001-2017
</metadata>
<g transform="translate(0.000000,500.000000) scale(0.100000,-0.100000)"
fill="#000000" stroke="none">
<path d="M1807 3053 c3 -691 4 -679 -52 -798 -55 -116 -196 -226 -324 -254
-47 -10 -175 -8 -226 3 -41 10 -110 41 -144 66 l-29 20 -76 -132 c-42 -72 -76
-134 -76 -138 0 -16 163 -91 237 -111 112 -29 263 -32 383 -7 286 59 519 283
596 573 18 65 19 118 19 740 l0 670 -156 3 -155 2 3 -637z"/>
<path d="M2320 3687 c0 -2 9 -22 20 -45 12 -23 73 -158 136 -300 142 -317 151
-337 174 -387 11 -22 41 -89 68 -150 491 -1093 510 -1135 520 -1135 4 0 34 60
67 133 32 72 80 178 107 235 26 57 48 105 48 107 0 2 15 36 34 77 19 40 75
163 124 273 50 110 106 235 126 278 20 42 36 79 36 82 0 2 15 36 34 75 19 38
32 70 29 70 -3 0 -1 6 5 13 5 6 41 82 80 167 38 85 82 182 96 215 15 33 35 76
43 95 9 19 31 67 49 107 19 39 34 76 34 82 0 8 -51 11 -162 11 l-163 -1 -54
-122 c-29 -67 -63 -142 -74 -167 -11 -25 -53 -121 -94 -215 -41 -93 -85 -192
-98 -220 -12 -27 -37 -84 -55 -125 -18 -41 -44 -102 -59 -135 -15 -33 -56
-124 -91 -203 -35 -78 -64 -141 -66 -140 -1 2 -52 118 -114 258 -61 140 -117
269 -124 285 -8 17 -26 57 -41 90 -15 33 -47 107 -72 165 -24 58 -58 134 -75
170 -16 36 -41 91 -54 123 -14 32 -38 88 -55 125 -17 37 -35 77 -40 90 -8 22
-12 22 -174 22 -91 0 -165 -1 -165 -3z"/>
</g>
</svg>
